<?xml version="1.0" encoding="utf-8"?>
<!-- Generator: Adobe Illustrator 17.0.0, SVG Export Plug-In . SVG Version: 6.00 Build 0)  -->
<!DOCTYPE svg PUBLIC "-//W3C//DTD SVG 1.1//EN" "http://www.w3.org/Graphics/SVG/1.1/DTD/svg11.dtd">
<svg version="1.1" id="Layer_1" xmlns="http://www.w3.org/2000/svg" xmlns:xlink="http://www.w3.org/1999/xlink" x="0px" y="0px"
	 width="531px" height="202px" viewBox="0 0 531 202" enable-background="new 0 0 531 202" xml:space="preserve">
<polygon fill="#1F2938" points="495.197,69.928 495.197,132.928 423.197,132.928 423.197,123.928 486.197,123.928 486.197,114.928 
	423.197,114.928 423.197,69.928 432.197,69.928 432.197,105.928 486.197,105.928 486.197,69.928 "/>
<path fill="#1F2938" d="M180.197,69.928v63h9v-18h63v-45H180.197z M243.197,105.928h-54v-27h54V105.928z"/>
<polygon fill="#1F2938" points="333.197,69.928 333.197,78.928 270.197,78.928 270.197,114.928 261.197,114.928 261.197,69.928 "/>
<path fill="#1F2938" d="M342.197,69.928v45h72v-9h-63v-9h63v-27H342.197z M405.197,87.928h-54v-9h54V87.928z"/>
<polygon fill="#3C77B9" points="90.322,36.1 68.417,48.746 83.018,57.175 90.303,52.961 97.622,57.173 112.22,48.742 "/>
<polygon fill="#3C77B9" points="90.325,166.757 145.073,135.145 145.072,101.428 130.466,109.857 130.471,126.715 90.319,149.898 
	50.162,126.711 50.161,109.854 35.566,101.427 35.566,135.142 "/>
<polygon fill="#1F2938" points="152.371,63.49 152.371,63.5 152.38,80.35 101.271,109.86 115.86,118.29 90.32,133.04 64.771,118.29 
	79.371,109.86 28.26,80.35 28.271,63.51 20.96,59.29 20.96,38.22 83.01,74.04 90.32,69.83 97.61,74.04 159.67,38.21 159.67,59.28 
	"/>
</svg>
