<?xml version="1.0" standalone="no"?>
<!DOCTYPE svg PUBLIC "-//W3C//DTD SVG 1.1//EN" "http://www.w3.org/Graphics/SVG/1.1/DTD/svg11.dtd" >
<svg xmlns="http://www.w3.org/2000/svg">
<metadata></metadata>
<defs>
<font id="regularitalic" horiz-adv-x="1011" >
<font-face units-per-em="2048" ascent="1536" descent="-512" />
<missing-glyph horiz-adv-x="466" />
<glyph horiz-adv-x="2048" />
<glyph horiz-adv-x="2048" />
<glyph horiz-adv-x="682" />
<glyph unicode="&#xd;" horiz-adv-x="1024" />
<glyph unicode=" "  horiz-adv-x="466" />
<glyph unicode="&#x09;" horiz-adv-x="466" />
<glyph unicode="&#xa0;" horiz-adv-x="466" />
<glyph unicode="!" horiz-adv-x="407" d="M6 -12l35 174h166l-35 -174h-166zM102 412l166 850h138l-166 -850h-138z" />
<glyph unicode="&#x22;" horiz-adv-x="647" d="M147 934l64 328h131l-63 -328h-132zM463 934l63 328h131l-63 -328h-131z" />
<glyph unicode="#" horiz-adv-x="1062" d="M10 322l25 124h186l60 310h-187l27 127h186l33 176h129l-33 -176h293l33 176h133l-33 -176h176l-26 -127h-176l-60 -310h176l-24 -124h-176l-35 -187h-133l34 187h-292l-35 -187h-129l35 187h-187zM350 446h293l59 310h-292z" />
<glyph unicode="$" horiz-adv-x="1093" d="M18 256h138q-3 -59 26 -98t84 -39h236q62 0 121 46t69 107l17 80q8 39 -1.5 75.5t-37.5 55.5l-391 203q-67 36 -96.5 101.5t-14.5 148.5l12 55q22 118 117 200.5t213 82.5h43l53 221h144l-54 -221h23q113 0 183.5 -77.5t58.5 -186.5h-136q2 59 -28 96t-84 37h-207 q-63 0 -122 -46t-69 -106l-12 -59q-19 -101 43 -129l404 -203q62 -34 85.5 -100.5t8.5 -147.5l-17 -80q-22 -119 -115.5 -201.5t-211.5 -82.5h-41l-49 -215h-144l49 215h-57q-114 0 -183.5 78t-56.5 190z" />
<glyph unicode="%" horiz-adv-x="1411" d="M182 819l54 307q10 60 61 103t111 43h147q62 0 100.5 -44t28.5 -106l-53 -307q-10 -60 -61.5 -103.5t-110.5 -43.5h-148q-63 0 -101 44t-28 107zM199 0l876 1262h125l-878 -1262h-123zM289 827q-12 -63 24 -63h150q23 0 41 16t22 43l52 291q12 62 -25 62h-150 q-23 0 -41 -15.5t-22 -42.5zM723 135l53 307q10 60 61 103t111 43h148q62 0 100.5 -44t28.5 -106l-54 -307q-10 -60 -61.5 -103.5t-110.5 -43.5h-147q-63 0 -101 44t-28 107zM829 143q-12 -63 25 -63h150q23 0 41 16t22 43l51 291q12 62 -24 62h-150q-23 0 -41 -15.5 t-22 -42.5z" />
<glyph unicode="&#x26;" horiz-adv-x="1136" d="M49 281l29 149q21 121 143 217q-40 59 -48 107t5 116l17 95q20 111 111.5 190.5t203.5 79.5h129l-25 -125h-102q-60 0 -117 -43.5t-69 -101.5l-21 -115q-12 -62 15 -107t83 -45h129l-22 -123h-115q-59 0 -116.5 -44t-67.5 -101l-29 -149q-13 -61 14 -106.5t83 -45.5h192 q61 0 123 52t74 112l55 285h-94l22 120h94l68 351h127l-68 -351h154l-22 -120h-154l-57 -295q-24 -120 -115.5 -201.5t-208.5 -81.5h-193q-116 0 -183 83t-44 198z" />
<glyph unicode="'" horiz-adv-x="331" d="M147 930l64 332h131l-63 -332h-132z" />
<glyph unicode="(" horiz-adv-x="669" d="M94 279l137 710q23 118 125 201.5t222 83.5h94l-25 -131h-84q-63 0 -123.5 -46.5t-72.5 -107.5l-138 -710q-12 -64 17 -109t90 -45h113l-25 -131h-94q-119 0 -189 83.5t-47 201.5z" />
<glyph unicode=")" horiz-adv-x="671" d="M2 -6l25 131h75q64 0 127.5 47t75.5 107l137 710q12 63 -20 108.5t-92 45.5h-105l25 131h92q120 0 189.5 -83.5t46.5 -201.5l-138 -710q-23 -118 -125 -201.5t-221 -83.5h-92z" />
<glyph unicode="*" horiz-adv-x="935" d="M100 1016l64 119l176 -66l39 205h123l-43 -203l209 66l14 -117l-203 -59l88 -164l-112 -72l-86 166l-152 -170l-84 74l152 159z" />
<glyph unicode="+" horiz-adv-x="1089" d="M170 457l27 127h297l55 293h131l-55 -293h297l-27 -127h-297l-57 -295h-131l57 295h-297z" />
<glyph unicode="," horiz-adv-x="391" d="M-43 -221l135 209h-80l35 174h176l-33 -168l-139 -215h-94z" />
<glyph unicode="-" horiz-adv-x="708" d="M102 457l27 127h463l-27 -127h-463z" />
<glyph unicode="." horiz-adv-x="368" d="M80 -12l35 174h168l-35 -174h-168z" />
<glyph unicode="/" horiz-adv-x="845" d="M-72 0l897 1262h133l-899 -1262h-131z" />
<glyph unicode="0" d="M27 268l141 727q23 117 123 198t219 81h240q119 0 185.5 -81t43.5 -198l-141 -727q-23 -118 -122 -199t-218 -81h-248q-118 0 -182 80.5t-41 199.5zM162 266q-12 -63 17.5 -105t90.5 -42h240q63 0 121.5 44.5t70.5 104.5l142 727q12 62 -17.5 105t-89.5 43h-237 q-63 0 -124 -44.5t-73 -103.5z" />
<glyph unicode="1" d="M33 0l24 131h295l195 999h-246l25 132h381l-220 -1131h287l-24 -131h-717z" />
<glyph unicode="2" d="M0 0l63 322q15 75 68 140t125 99l473 221q83 39 105 146l12 63q12 63 -16 107.5t-87 44.5h-235q-53 0 -101 -37.5t-69 -91.5h-139q33 109 126.5 184.5t202.5 75.5h226q119 0 185.5 -79.5t43.5 -197.5l-16 -84q-13 -70 -63 -139.5t-122 -103.5l-481 -226 q-37 -18 -65.5 -54.5t-36.5 -72.5l-39 -186h631l-25 -131h-766z" />
<glyph unicode="3" d="M41 266h135q-5 -62 18.5 -103.5t77.5 -41.5h217q63 0 129 51t78 111l31 155q12 62 -18 108t-88 46h-203l24 129h185q60 0 116 46t68 107l25 117q12 62 -17 107t-88 45h-233q-56 0 -106 -40.5t-68 -96.5h-140q30 112 124 190t206 78h227q119 0 186 -81t44 -198l-25 -123 q-25 -123 -141 -215q79 -105 57 -215l-33 -168q-23 -121 -119 -202.5t-218 -81.5h-230q-113 0 -177 80.5t-44 195.5z" />
<glyph unicode="4" d="M41 324l375 938h133l-316 -807h349l84 430h135l-84 -430h205l-27 -131h-205l-61 -324h-135l61 324h-514z" />
<glyph unicode="5" d="M45 260h139q-5 -59 21.5 -99t79.5 -40h219q60 0 122 46t74 105l39 201q12 62 -17 108t-87 46h-475l123 635h661l-26 -132h-527l-72 -372h330q117 0 184 -81t44 -198l-43 -213q-23 -117 -120 -196.5t-214 -79.5h-226q-113 0 -178 78t-51 192z" />
<glyph unicode="6" d="M47 272l35 183q11 67 53 125l498 682h151l-403 -545q36 12 65 12h193q116 6 185 -75.5t46 -202.5l-34 -179q-23 -119 -122.5 -202.5t-217.5 -83.5h-220q-118 0 -185 83.5t-44 202.5zM182 268q-12 -62 16.5 -106.5t88.5 -44.5h217q62 0 123 46t73 105l35 181 q11 62 -17.5 105.5t-86.5 43.5h-219q-65 0 -124 -43t-71 -106z" />
<glyph unicode="7" d="M88 0l746 1130h-627l24 132h834l-821 -1262h-156z" />
<glyph unicode="8" d="M49 270l33 170q25 127 151 226q-37 47 -51 92t-4 102l25 131q22 118 121 200.5t219 82.5h192q120 0 188.5 -83.5t45.5 -201.5l-23 -115q-20 -110 -135 -210q80 -100 59 -224l-30 -166q-22 -118 -122.5 -203t-219.5 -85h-224q-118 0 -183 82.5t-42 201.5zM188 274 q-11 -64 15.5 -110.5t85.5 -46.5h217q62 0 125.5 49t73.5 108l30 166q11 62 -20 108t-90 46h-217q-61 0 -120 -47.5t-69 -106.5zM315 874q-12 -61 23.5 -106t95.5 -45h189q61 0 118.5 45t69.5 106l23 115q12 63 -19.5 108.5t-91.5 45.5h-191q-62 0 -122 -46.5t-72 -107.5z " />
<glyph unicode="9" d="M137 811l35 178q23 118 122.5 201.5t217.5 83.5h219q118 0 185.5 -84t44.5 -201l-35 -182q-11 -66 -54 -125l-497 -682h-152l404 545q-39 -13 -66 -13h-192q-117 0 -186.5 80t-45.5 199zM272 813q-12 -61 18 -105t89 -44h219q60 -3 120.5 43t72.5 106l34 180 q12 62 -18 106t-90 44h-211q-63 0 -125 -45.5t-74 -104.5z" />
<glyph unicode=":" horiz-adv-x="368" d="M23 -12l34 174h168l-35 -174h-167zM137 575l35 175h168l-35 -175h-168z" />
<glyph unicode=";" horiz-adv-x="387" d="M2 -221l135 209h-88l39 174h176l-33 -170l-139 -213h-90zM166 575l35 175h168l-35 -175h-168z" />
<glyph unicode="&#x3c;" horiz-adv-x="1468" d="M23 618l702 469l72 -88l-478 -319h1076v-123h-1067l477 -315l-82 -92z" />
<glyph unicode="=" d="M121 326l24 127h713l-24 -127h-713zM172 594l25 127h712l-24 -127h-713z" />
<glyph unicode="&#x3e;" horiz-adv-x="1468" d="M51 557v123h1075l-479 317l74 88l706 -469l-706 -469l-76 95l479 315h-1073z" />
<glyph unicode="?" horiz-adv-x="964" d="M168 932l12 59q22 117 121.5 200t218.5 83h217q120 0 187.5 -73.5t46.5 -188.5l-13 -60q-16 -80 -59 -137.5t-131 -101.5q-31 -15 -98.5 -49t-98.5 -50q-40 -19 -69.5 -54t-36.5 -75l-19 -96h-131l19 96q14 70 49.5 121t80 81.5t116.5 64.5l135 69q56 28 79 52t33 77 l13 66q9 52 -24.5 91.5t-88.5 39.5h-217q-61 0 -125 -48.5t-74 -107.5l-12 -59h-131zM217 -12l35 172h166l-35 -172h-166z" />
<glyph unicode="@" horiz-adv-x="1196" d="M68 270l139 719q23 119 123.5 202t220.5 83h432q89 0 135.5 -63.5t28.5 -155.5l-90 -457q-18 -94 -88.5 -159.5t-159.5 -65.5h-246q-90 0 -135 65t-27 160l15 72q17 94 87 156.5t161 62.5h319l35 178q5 33 -4.5 56.5t-36.5 23.5h-432q-63 0 -129 -49t-78 -109l-139 -719 q-12 -63 19 -108t93 -45h506l-26 -127h-490q-119 0 -187.5 81t-45.5 199zM526 580q-5 -32 5 -56t40 -24h246q33 0 67 23.5t40 51.5l34 187h-305q-29 0 -64.5 -24t-39.5 -52z" />
<glyph unicode="A" horiz-adv-x="1067" d="M-72 0l619 1262h211l135 -1262h-141l-25 244h-541l-118 -244h-140zM250 373h467l-76 739h-31z" />
<glyph unicode="B" horiz-adv-x="1093" d="M20 0l244 1262h533q119 0 187 -83q51 -62 52 -143q0 -27 -6 -57l-26 -131q-24 -121 -146 -219q67 -80 67 -169q0 -24 -5 -48l-27 -129q-25 -120 -121.5 -201.5t-216.5 -81.5h-535zM180 131h375q62 0 126.5 46t76.5 106l26 129q4 19 4 36q0 40 -20 72q-28 46 -88 45h-416z M291 694h393q60 0 116 47t68 107l27 131q4 18 4 35q0 40 -21 72q-29 44 -87 44h-416z" />
<glyph unicode="C" horiz-adv-x="1058" d="M55 268l142 721q23 118 121.5 201.5t216.5 83.5h247q112 0 178 -77q55 -65 56 -155q0 -17 -2 -34h-135v11q0 49 -24 85q-27 38 -81 39h-248q-62 0 -122 -46.5t-72 -107.5l-142 -719q-4 -20 -4 -38q0 -40 18 -70q26 -44 87 -43h252q58 0 114.5 40t75.5 95h133l2 -2 q-32 -113 -128 -188.5t-208 -75.5h-247q-119 0 -186 81q-50 60 -50 141q0 28 6 58z" />
<glyph unicode="D" horiz-adv-x="1097" d="M20 0l244 1262h541q121 0 183 -86q47 -65 47 -141q0 -24 -5 -50l-137 -706q-24 -121 -109.5 -200t-208.5 -79h-555zM180 131h400q56 0 110.5 41t67.5 107l137 702q4 19 4 36q0 39 -20 69q-28 44 -86 44h-418z" />
<glyph unicode="E" horiz-adv-x="1009" d="M20 0l244 1262h719l-25 -132h-583l-84 -436h553l-27 -131h-553l-84 -432h584l-25 -131h-719z" />
<glyph unicode="F" horiz-adv-x="950" d="M18 0l244 1262h717l-25 -132h-581l-84 -436h540l-26 -131h-541l-108 -563h-136z" />
<glyph unicode="G" horiz-adv-x="1077" d="M55 270l142 721q23 118 120 200.5t215 82.5h254q110 0 178 -76q58 -64 58 -152q0 -16 -2 -32h-135q0 57 -26 93t-79 36h-254q-63 0 -122.5 -46t-71.5 -106l-142 -721q-4 -19 -4 -37q0 -39 18 -69q27 -45 85 -45h258q61 0 121.5 46t72.5 105l58 295h-254l26 129h390 l-84 -428q-22 -114 -119.5 -196t-212.5 -82h-262q-117 0 -184 83q-50 62 -50 142q0 27 6 57z" />
<glyph unicode="H" horiz-adv-x="1126" d="M20 0l244 1262h135l-108 -568h561l109 568h135l-244 -1262h-135l108 563h-561l-108 -563h-136z" />
<glyph unicode="I" horiz-adv-x="444" d="M39 0l244 1262h135l-244 -1262h-135z" />
<glyph unicode="J" horiz-adv-x="876" d="M0 264l18 94h136l-19 -94q-3 -17 -3 -33q0 -40 21 -70q30 -42 89 -42h112q62 0 121.5 44t71.5 103l194 996h136l-195 -1000q-23 -115 -121.5 -194.5t-214.5 -79.5h-119q-117 0 -183 80q-50 60 -50 139q0 27 6 57z" />
<glyph unicode="K" horiz-adv-x="1077" d="M20 0l244 1262h135l-104 -545h37q94 88 293 272.5t293 272.5h176l-668 -619q61 -94 207 -312t219 -331h-174l-375 580h-35l-112 -580h-136z" />
<glyph unicode="L" horiz-adv-x="911" d="M18 0l244 1262h135l-219 -1131h570l-25 -131h-705z" />
<glyph unicode="M" horiz-adv-x="1284" d="M20 0l244 1262h160l235 -510q73 85 224 255t223 255h162l-244 -1262h-135l207 1067q-79 -92 -239 -280.5t-239 -280.5l-256 561l-206 -1067h-136z" />
<glyph unicode="N" horiz-adv-x="1105" d="M18 0l244 1262h150l340 -1020l196 1020h135l-243 -1262h-154l-338 1004l-194 -1004h-136z" />
<glyph unicode="O" horiz-adv-x="1114" d="M63 268l142 727q23 117 123 198t219 81h266q119 0 185 -81q49 -60 50 -140q0 -28 -6 -58l-141 -727q-23 -119 -120.5 -199.5t-219.5 -80.5h-274q-119 0 -183 80q-48 59 -47 140q0 29 6 60zM199 266q-4 -20 -4 -38q0 -40 18 -68q26 -42 86 -41h266q64 0 126.5 44.5 t74.5 104.5l141 727q4 19 4 36q0 39 -19 69q-27 43 -87 43h-264q-63 0 -126 -45t-75 -103z" />
<glyph unicode="P" horiz-adv-x="1071" d="M18 0l244 1262h537q119 0 187 -83q51 -62 52 -143q0 -27 -6 -57l-28 -141q-25 -120 -120 -201.5t-218 -81.5h-406l-106 -555h-136zM287 686h387q63 0 123.5 47t70.5 107l29 139q4 20 4 37q0 40 -19 70q-27 44 -87 44h-422z" />
<glyph unicode="Q" horiz-adv-x="1114" d="M63 268l142 727q23 117 123 198t219 81h266q119 0 185 -81q50 -60 50 -140q0 -28 -6 -58l-141 -727q-23 -119 -120.5 -199.5t-219.5 -80.5h-61l-41 -221h-137l40 221h-75q-118 0 -183 80q-47 60 -47 140q0 29 6 60zM199 266q-4 -20 -4 -38q0 -39 18 -68q26 -41 86 -41 h266q64 0 126.5 44.5t74.5 104.5l141 727q4 19 4 36q0 39 -19 69q-27 43 -87 43h-264q-63 0 -126 -45t-75 -103z" />
<glyph unicode="R" horiz-adv-x="1079" d="M18 0l244 1262h541q118 0 185 -83q50 -62 50 -142q0 -28 -6 -58l-28 -141q-22 -109 -108.5 -189t-193.5 -92q31 -97 97 -290t90 -267h-154l-180 555h-295l-106 -555h-136zM287 686h385q63 0 123.5 46.5t72.5 107.5l29 139q4 21 4 40q0 37 -17 67q-26 44 -85 44h-426z" />
<glyph unicode="S" horiz-adv-x="1005" d="M18 256h138v-11q0 -52 26 -87q29 -39 84 -39h236q62 0 121 46t69 107l17 80q4 19 4 37q0 21 -5 41q-9 38 -38 53l-391 203q-66 34 -96 100q-20 44 -20 96q0 26 5 54l12 55q22 118 117 200.5t213 82.5h209q113 0 183 -78q60 -66 61 -155q0 -15 -2 -31h-136v7q0 54 -28 89 q-30 37 -84 37h-207q-63 0 -122 -46t-69 -106l-12 -59q-4 -22 -4 -41q0 -64 47 -88l404 -203q64 -32 88 -99q14 -39 14 -82q0 -32 -8 -67l-17 -80q-25 -121 -115.5 -202.5t-209.5 -81.5h-242q-114 0 -184 78q-60 66 -60 156q0 17 2 34z" />
<glyph unicode="T" horiz-adv-x="929" d="M135 1130l25 132h839l-24 -132h-352l-220 -1130h-135l219 1130h-352z" />
<glyph unicode="U" horiz-adv-x="1093" d="M57 268l193 994h135l-195 -996q-4 -19 -4 -35q0 -40 20 -70q28 -42 89 -42h252q63 0 124.5 44.5t73.5 104.5l193 994h135l-192 -994q-23 -118 -122 -199t-218 -81h-260q-119 0 -183 80q-48 59 -47 140q0 29 6 60z" />
<glyph unicode="V" horiz-adv-x="1056" d="M170 1262h139l111 -1110h33q74 151 258.5 532.5t281.5 577.5h133l-612 -1262h-217z" />
<glyph unicode="W" horiz-adv-x="1525" d="M168 1262h137l10 -1119q196 431 498 1119h148q3 -51 25.5 -475.5t37.5 -645.5l442 1121h140l-504 -1262h-205l-57 1016q-76 -168 -226.5 -508t-226.5 -508h-203z" />
<glyph unicode="X" horiz-adv-x="995" d="M-55 0l463 621l-228 641h154l172 -508l371 508h153l-477 -641l225 -621h-147l-174 487l-365 -487h-147z" />
<glyph unicode="Y" horiz-adv-x="909" d="M147 1262h152l172 -545q63 90 191.5 272.5t191.5 272.5h152l-494 -682l-113 -580h-135l113 580q-33 101 -112 331.5t-118 350.5z" />
<glyph unicode="Z" horiz-adv-x="985" d="M-25 0l811 1130h-542l24 132h768l-809 -1131h539l-25 -131h-766z" />
<glyph unicode="[" horiz-adv-x="667" d="M41 0l244 1262h383l-25 -132h-248l-194 -999h248l-25 -131h-383z" />
<glyph unicode="\" horiz-adv-x="845" d="M102 1262h131l414 -1262h-135z" />
<glyph unicode="]" horiz-adv-x="671" d="M4 0l25 131h247l195 999h-248l25 132h383l-244 -1262h-383z" />
<glyph unicode="^" horiz-adv-x="858" d="M80 889l258 465h147l74 -465h-127l-45 315l-168 -315h-139z" />
<glyph unicode="_" horiz-adv-x="915" d="M43 0l23 111h956l-23 -111h-956z" />
<glyph unicode="`" horiz-adv-x="739" d="M133 1354h168l164 -260h-123z" />
<glyph unicode="a" horiz-adv-x="952" d="M43 213l16 78q19 95 92.5 159t167.5 64h369l33 172q2 12 2 23q-1 25 -13 43q-18 26 -57 26h-213q-37 0 -74.5 -31.5t-48.5 -66.5h-135q24 93 98.5 159t163.5 66h215q98 -1 155 -65q43 -48 42 -114q0 -22 -4 -46l-133 -680h-127l6 53q-38 -40 -73 -52.5t-83 -12.5h-204 q-107 0 -160 66q-40 49 -40 113q0 22 5 46zM174 213q-2 -12 -3 -23q0 -26 14 -46q19 -29 57 -29h200q66 0 125 38t70 101l27 137h-349q-41 0 -79.5 -28.5t-45.5 -67.5z" />
<glyph unicode="b" horiz-adv-x="925" d="M10 0l244 1262h131l-82 -416q43 33 75 46t83 13h129q120 1 192 -77q55 -59 55 -140q0 -26 -6 -53l-71 -377q-23 -117 -116 -193.5t-210 -76.5h-112q-55 0 -96 13t-76 52l-15 -53h-125zM186 236q-3 -13 -3 -25q0 -38 28 -63q36 -33 88 -33h137q65 0 122.5 39.5t70.5 101.5 l71 379q4 19 4 35q0 40 -22 68q-32 40 -94 40h-137q-64 0 -120 -40.5t-69 -102.5z" />
<glyph unicode="c" horiz-adv-x="933" d="M49 268l68 355q23 118 117 200t210 82h136q118 0 191 -75q57 -58 56 -136q0 -22 -4 -47h-131q2 14 2 26q0 41 -26 69q-34 36 -93 36h-135q-64 0 -121 -44.5t-69 -106.5l-70 -357q-3 -18 -4 -35q0 -43 22 -75q30 -45 93 -45h135q70 0 122.5 32.5t63.5 98.5h131 q-8 -46 -30 -89.5t-58.5 -82.5t-93.5 -62.5t-127 -23.5h-151q-117 0 -187 82q-52 62 -53 142q0 27 6 56z" />
<glyph unicode="d" horiz-adv-x="958" d="M59 256l72 375q23 117 116 195.5t210 78.5h129q103 0 157 -57l80 414h131l-245 -1262h-127l8 53q-51 -40 -87 -52.5t-87 -12.5h-113q-119 0 -193 76q-56 58 -56 139q0 25 5 53zM190 256q-4 -18 -3 -35q0 -39 22 -67q32 -38 94 -39h137q55 0 114.5 33.5t70.5 87.5l75 399 q4 20 4 37q0 38 -20 66q-30 40 -92 40h-137q-64 0 -122 -40.5t-71 -102.5z" />
<glyph unicode="e" horiz-adv-x="940" d="M59 258l72 371q23 117 117 196.5t211 79.5h139q119 -1 191 -81q55 -61 54 -141q0 -26 -5 -54l-50 -252h-575l-25 -121q-3 -16 -3 -30q0 -43 27 -72q36 -39 99 -39h142q111 0 155 94h137q-44 -99 -118 -160t-170 -61h-156q-121 0 -193 78q-55 59 -55 139q0 25 6 53z M238 502h444l25 129q3 17 3 33q0 42 -23 72q-32 42 -93 42h-137q-65 0 -124 -42t-71 -103z" />
<glyph unicode="f" horiz-adv-x="641" d="M100 762l25 127h162l18 94q23 118 116.5 198.5t211.5 80.5h108l-24 -127h-90q-65 0 -122 -45t-69 -109l-18 -92h254l-25 -127h-254l-147 -762h-131l147 762h-162z" />
<glyph unicode="g" horiz-adv-x="952" d="M25 -139h131q-1 -9 -1 -17q0 -38 23 -59q28 -25 80 -25h148q51 0 104.5 34t64.5 89l31 162q-44 -34 -75 -45.5t-70 -11.5h-152q-119 0 -193 76q-55 57 -55 137q0 26 5 53l73 381q23 117 116 193.5t210 76.5h121q124 0 174 -76l14 60h127l-192 -995q-23 -114 -112 -185 t-206 -71h-133q-119 0 -184 58q-53 46 -53 123q0 20 4 42zM197 254q-3 -16 -3 -30q0 -42 26 -70q35 -39 99 -39h144q64 0 118 40.5t66 100.5l74 379q3 17 3 32q0 42 -24 71q-33 40 -96 40h-143q-65 0 -122 -39.5t-69 -101.5z" />
<glyph unicode="h" horiz-adv-x="976" d="M14 0l242 1262h131l-82 -426q44 37 81 53t99 16h131q118 0 186 -81q50 -60 49 -140q0 -27 -5 -57l-121 -627h-131l123 633q3 18 3 34q0 41 -22 71q-30 40 -92 40h-151q-65 0 -121.5 -38.5t-67.5 -100.5l-123 -639h-129z" />
<glyph unicode="i" horiz-adv-x="428" d="M31 0l172 889h131l-172 -889h-131zM236 1110l28 152h152l-29 -152h-151z" />
<glyph unicode="j" horiz-adv-x="444" d="M-274 -352l24 127h90q51 0 115.5 49t75.5 108l186 957h131l-186 -955q-26 -131 -118 -208.5t-210 -77.5h-108zM250 1110l29 152h151l-29 -152h-151z" />
<glyph unicode="k" horiz-adv-x="894" d="M18 0l242 1262h131l-143 -738h47l401 365h168l-463 -426l361 -463h-174l-314 403h-49l-78 -403h-129z" />
<glyph unicode="l" horiz-adv-x="512" d="M61 266l195 996h131l-194 -996q-3 -16 -3 -31q0 -45 24 -77q32 -44 95 -43h53l-24 -127h-37q-123 0 -193 80q-53 60 -53 142q0 27 6 56z" />
<glyph unicode="m" horiz-adv-x="1449" d="M25 0l172 889h127l-7 -51q43 37 79.5 52t97.5 15h86q129 0 188 -104q66 60 113 82t118 22h88q115 0 184 -81q52 -61 52 -140q0 -26 -6 -55l-121 -629h-131l121 629q4 20 4 37q0 40 -20 70q-28 42 -87 42h-98q-66 0 -120 -41.5t-66 -103.5l-123 -633h-131l121 631 q4 18 4 34q0 39 -20 67q-28 40 -85 46h-102q-63 0 -117.5 -38.5t-66.5 -100.5l-123 -639h-131z" />
<glyph unicode="n" horiz-adv-x="993" d="M27 0l172 889h127l-7 -53q44 38 80.5 53.5t98.5 15.5h131q118 0 186 -80q51 -60 51 -140q0 -27 -6 -56l-121 -629h-131l121 631q4 19 4 36q0 41 -21 69q-29 42 -91 42h-152q-65 0 -120.5 -38.5t-67.5 -100.5l-123 -639h-131z" />
<glyph unicode="o" horiz-adv-x="937" d="M59 262l72 371q23 117 118 194.5t212 77.5h137q119 -1 190 -79q54 -59 54 -139q0 -26 -6 -54l-70 -365q-23 -118 -118.5 -199t-211.5 -81h-141q-117 0 -188 80q-54 60 -54 140q0 26 6 54zM190 264q-3 -17 -4 -33q0 -43 24 -73q32 -42 95 -43h135q65 0 123 43.5t70 105.5 l72 371q4 18 4 34q0 41 -24 69q-33 40 -95 40h-135q-64 0 -122 -40.5t-71 -102.5z" />
<glyph unicode="p" horiz-adv-x="958" d="M-31 -356l242 1245h127l-8 -49q51 40 87 52.5t87 12.5h112q120 0 194 -76q55 -58 55 -139q0 -25 -5 -53l-72 -375q-23 -117 -115.5 -195.5t-209.5 -78.5h-129q-104 0 -158 57l-76 -401h-131zM219 258q-4 -19 -4 -36q0 -40 21 -68q30 -39 92 -39h137q64 0 121.5 40.5 t70.5 102.5l72 379q4 18 4 35q0 40 -23 68q-32 38 -94 38h-137q-55 0 -114 -33.5t-70 -87.5z" />
<glyph unicode="q" horiz-adv-x="935" d="M68 258l71 377q23 117 116 193.5t210 76.5h113q55 0 96 -13t76 -52l14 49h125l-242 -1245h-131l80 403q-43 -33 -75 -46t-83 -13h-129q-120 0 -192 78q-55 58 -55 139q0 25 6 53zM199 258q-4 -19 -4 -35q0 -41 23 -69q31 -39 93 -39h138q64 0 119.5 40t68.5 103l76 399 q3 13 3 25q0 38 -28 63q-36 33 -88 33h-137q-65 0 -122.5 -39.5t-70.5 -101.5z" />
<glyph unicode="r" horiz-adv-x="641" d="M14 0l172 889h127l-8 -66q82 82 191 82h163l-24 -135h-178q-63 0 -122 -45.5t-71 -106.5l-119 -618h-131z" />
<glyph unicode="s" horiz-adv-x="931" d="M41 209h129q-2 -15 -3 -28q0 -66 62 -66h273q41 0 82.5 29t48.5 67l16 84q3 14 3 26q0 25 -10 41q-16 26 -54 25h-273q-95 -1 -144 63q-35 46 -35 109q0 24 5 51l15 72q19 96 97 159.5t173 63.5h213q93 1 146 -67q40 -51 41 -116q0 -21 -5 -42h-131q3 14 3 26 q1 25 -11 44q-16 28 -61 28h-209q-41 0 -79.5 -27.5t-45.5 -66.5l-15 -76q-2 -12 -2 -23q0 -27 12 -45q18 -26 58 -26h270q94 0 142 -62q34 -45 34 -107q0 -25 -6 -52l-16 -82q-19 -95 -96 -159t-172 -64h-283q-91 0 -141 64q-36 46 -37 107q0 24 6 50z" />
<glyph unicode="t" horiz-adv-x="675" d="M74 762l26 127h162l68 352h131l-68 -352h258l-26 -127h-258l-95 -488q-5 -24 -5 -45q-1 -38 15 -68q24 -46 85 -46h118l-24 -127h-99q-123 0 -184 81q-44 58 -44 136q0 31 7 65l95 492h-162z" />
<glyph unicode="u" horiz-adv-x="974" d="M74 266l121 623h131l-121 -629q-3 -18 -4 -35q0 -41 22 -69q30 -40 92 -41h156q65 0 119 36.5t67 98.5l123 639h131l-172 -889h-127l6 55q-44 -37 -79 -52t-97 -15h-135q-118 0 -187 81q-52 61 -52 141q0 27 6 56z" />
<glyph unicode="v" horiz-adv-x="825" d="M121 889h135l74 -739l364 739h146l-461 -889h-148z" />
<glyph unicode="w" horiz-adv-x="1327" d="M121 889h129l55 -719l338 719h164l55 -719l338 719h141l-436 -889h-143l-66 723l-348 -723h-143z" />
<glyph unicode="x" horiz-adv-x="835" d="M-68 0l387 463l-202 426h143l152 -324l260 324h157l-358 -430l211 -459h-145l-158 354l-291 -354h-156z" />
<glyph unicode="y" horiz-adv-x="845" d="M68 -356l184 342l-152 903h140q112 -715 112 -723l396 723h143l-684 -1245h-139z" />
<glyph unicode="z" horiz-adv-x="870" d="M-14 0q96 126 315 398t291 364h-434l24 127h662q-439 -550 -604 -762h432l-25 -127h-661z" />
<glyph unicode="{" horiz-adv-x="735" d="M66 555l30 156h148l55 278q22 118 124 201.5t222 83.5h94l-26 -131h-78q-63 0 -127 -47t-74 -107l-141 -717q-11 -64 19 -108.5t91 -44.5h111l-27 -131h-94q-119 0 -188 83t-47 201l55 283h-147z" />
<glyph unicode="|" horiz-adv-x="315" d="M-53 -416l397 2063h51l-397 -2063h-51z" />
<glyph unicode="}" horiz-adv-x="739" d="M0 -12l27 131h71q65 0 131 46.5t76 106.5l141 719q11 64 -18.5 109t-89.5 45h-113l27 131h92q120 0 190 -83.5t48 -201.5l-56 -280h148l-31 -156h-147l-56 -283q-23 -118 -126 -201t-222 -83h-92z" />
<glyph unicode="~" horiz-adv-x="946" d="M131 537q36 48 88.5 82t112.5 34q39 0 147 -44t137 -42q34 1 58.5 20.5t50.5 53.5l84 -63q-85 -121 -197 -121q-48 0 -145.5 42t-138.5 42q-55 0 -115 -74z" />
<glyph unicode="&#xa1;" horiz-adv-x="428" d="M8 -2l168 858h143l-167 -858h-144zM211 1094l35 174h168l-35 -174h-168z" />
<glyph unicode="&#xa2;" horiz-adv-x="935" d="M63 268l68 342q22 115 118 197.5t212 85.5l33 162h133l-33 -162h8q117 0 186 -74.5t48 -183.5h-131q12 60 -20.5 95.5t-92.5 35.5h-135q-64 0 -123.5 -45t-71.5 -107l-67 -344q-12 -65 15.5 -110t88.5 -45h135q70 0 126 32.5t69 98.5h131q-9 -45 -33.5 -89t-63.5 -82.5 t-98 -62.5t-129 -24h-16l-33 -162h-133l33 162h-2q-117 0 -181 81.5t-41 198.5z" />
<glyph unicode="&#xa3;" horiz-adv-x="1064" d="M61 326l25 127h125l27 141h-125l24 127h125l55 278q23 116 123.5 195.5t218.5 79.5h99l-25 -131h-82q-65 0 -126.5 -45.5t-73.5 -106.5l-54 -270h453l-25 -127h-452l-27 -141h453l-25 -127h-452l-39 -195h303q58 0 114.5 40t75.5 95h139q-31 -113 -128 -189.5t-209 -76.5 h-455l63 326h-125z" />
<glyph unicode="&#xa4;" horiz-adv-x="1095" />
<glyph unicode="&#xa5;" horiz-adv-x="909" d="M55 326l25 127h289l24 127q-6 12 -6 14h-281l25 127h215q-18 52 -58 169t-69.5 204.5t-54.5 167.5h151l170 -541h4q150 213 381 541h152l-393 -541h215l-25 -127h-282l-9 -14l-24 -127h289l-25 -127h-289l-63 -326h-135l63 326h-289z" />
<glyph unicode="&#xa6;" horiz-adv-x="466" d="M10 -139l135 694h136l-136 -694h-135zM180 733l131 670h135l-131 -670h-135z" />
<glyph unicode="&#xa7;" horiz-adv-x="931" d="M25 209l131 -6q-7 -92 61 -92h244q42 0 85 27t50 65l14 80q8 41 -8 66.5t-55 25.5h-273q-95 0 -145 63.5t-31 159.5l13 61q17 88 100 160q-58 77 -41 170l12 64q19 94 100.5 159.5t176.5 63.5h248q89 0 140 -64.5t34 -156.5l-131 6q7 90 -66 90h-231q-42 0 -83 -26.5 t-48 -63.5l-15 -80q-9 -40 10 -67t58 -27h268q95 0 144 -63.5t30 -159.5l-10 -60q-17 -88 -102 -162q60 -71 43 -163l-15 -68q-19 -95 -97 -160t-173 -65h-266q-90 0 -140.5 65t-31.5 158zM233 592q-8 -43 5 -68.5t51 -25.5h264q40 0 75 28.5t42 67.5l14 76q8 42 -6.5 68 t-52.5 26h-260q-40 0 -75 -28.5t-42 -67.5z" />
<glyph unicode="&#xa8;" horiz-adv-x="743" d="M104 1110l29 152h152l-31 -152h-150zM455 1110l30 152h152l-31 -152h-151z" />
<glyph unicode="&#xa9;" horiz-adv-x="1271" d="M51 274l139 715q23 118 125.5 201.5t221.5 83.5h473q119 0 187.5 -83.5t45.5 -201.5l-139 -715q-22 -117 -124 -200.5t-220 -83.5h-473q-118 0 -188 83t-48 201zM186 274q-11 -64 19.5 -108.5t91.5 -44.5h473q64 0 126.5 46.5t72.5 106.5l139 715q12 63 -19.5 108.5 t-91.5 45.5h-473q-63 0 -124.5 -47t-73.5 -107zM358 553l31 162q21 100 95.5 168.5t170.5 68.5h93q92 0 147 -66t37 -149v-6h-117q3 115 -76 115h-88q-47 0 -89.5 -37t-51.5 -86l-35 -178q-10 -50 8.5 -83.5t63.5 -33.5h92q49 0 85.5 31.5t53.5 87.5h115v-8 q-16 -81 -91.5 -149t-166.5 -68h-103q-97 0 -145.5 66t-28.5 165z" />
<glyph unicode="&#xaa;" horiz-adv-x="761" d="M156 803l14 76q10 62 58 101.5t112 39.5h225l21 117q6 43 -35 43h-148q-17 0 -36 -16t-27 -34l-102 3q14 57 62.5 98t105.5 41h147q65 0 105 -38.5t30 -98.5l-59 -328q-11 -62 -57 -100.5t-109 -38.5h-168q-66 0 -107.5 38t-31.5 97zM260 799q-3 -18 7 -26.5t32 -8.5h168 q53 0 59 35l23 131h-213q-20 0 -39.5 -14.5t-22.5 -34.5z" />
<glyph unicode="&#xab;" horiz-adv-x="1077" d="M119 483l418 359h182l-422 -359q43 -56 137 -173t137 -173h-182zM512 483l420 359h180l-420 -359q35 -46 131 -165.5t142 -180.5h-181z" />
<glyph unicode="&#xac;" horiz-adv-x="1228" d="M141 473l23 119h956l-96 -502h-121l74 383h-836z" />
<glyph unicode="&#xad;" horiz-adv-x="708" d="M102 457l27 127h463l-27 -127h-463z" />
<glyph unicode="&#xae;" horiz-adv-x="1271" d="M51 274l139 715q23 118 125.5 201.5t221.5 83.5h473q119 0 187.5 -83.5t45.5 -201.5l-139 -715q-22 -117 -124 -200.5t-220 -83.5h-473q-118 0 -188 83t-48 201zM186 274q-11 -64 17.5 -108.5t89.5 -44.5h473q65 0 129 46.5t74 106.5l139 715q12 63 -18.5 108.5 t-90.5 45.5h-473q-63 0 -125.5 -47t-74.5 -107zM377 338l121 625h315q56 0 87.5 -38.5t19.5 -93.5q-4 -23 -12.5 -68t-12.5 -67q-28 -121 -141 -131q7 -22 33.5 -106.5t39.5 -120.5h-127q-7 29 -28 124.5t-21 100.5h-123l-43 -225h-108zM547 662h190q14 0 29.5 9t19.5 25 l25 129q3 17 -8 28t-27 11h-190z" />
<glyph unicode="&#xaf;" horiz-adv-x="847" d="M74 1155l22 107h566l-23 -107h-565z" />
<glyph unicode="&#xb0;" horiz-adv-x="765" d="M180 1102q0 78 56.5 134t134.5 56t135 -56t57 -134q0 -79 -57 -135t-135 -56t-134.5 56t-56.5 135zM254 1102q0 -54 32.5 -87.5t84.5 -33.5q53 0 85.5 33.5t32.5 87.5q0 53 -33 87t-85 34t-84.5 -34t-32.5 -87z" />
<glyph unicode="&#xb1;" horiz-adv-x="1024" d="M88 -111l21 111h725l-21 -111h-725zM197 457l26 127h297l55 293h132l-56 -293h297l-26 -127h-297l-56 -295h-131l56 295h-297z" />
<glyph unicode="&#xb2;" horiz-adv-x="720" d="M180 672l29 164q7 38 34.5 72.5t61.5 49.5q34 18 106.5 53t106.5 52q26 10 35 43l2 18q5 22 -5.5 38t-29.5 16h-98q-14 0 -33 -16.5t-29 -37.5h-102q21 63 70 107.5t102 44.5h98q62 0 99.5 -45.5t27.5 -106.5l-2 -18q-8 -42 -34.5 -77.5t-65.5 -53.5l-211 -103 q-28 -14 -31 -41l-10 -61h293l-19 -98h-395z" />
<glyph unicode="&#xb3;" horiz-adv-x="727" d="M193 823h108q8 -51 33 -51h100q19 0 36.5 14t21.5 35l8 49q7 50 -29 50h-100l18 98h90q19 0 35.5 14t20.5 35l10 55q3 21 -5 34t-26 13h-102q-35 0 -60 -51h-104q20 65 69.5 108.5t104.5 43.5h100q60 0 98 -44t29 -104l-10 -55q-8 -49 -57 -98q31 -45 22 -99l-8 -49 q-11 -62 -59.5 -105.5t-108.5 -43.5h-102q-57 0 -92 41.5t-41 109.5z" />
<glyph unicode="&#xb4;" horiz-adv-x="759" d="M248 1094l266 260h168l-313 -260h-121z" />
<glyph unicode="&#xb5;" horiz-adv-x="948" d="M-8 -352l237 1241h131l-122 -639q-12 -62 24 -98.5t100 -36.5h152q64 0 115 36.5t63 98.5l123 639h131l-172 -889h-127l6 55q-42 -36 -82.5 -51.5t-103.5 -15.5h-107q-63 0 -97 15.5t-64 51.5l-78 -407h-129z" />
<glyph unicode="&#xb6;" horiz-adv-x="1048" d="M113 852l24 125q23 118 120.5 201.5t215.5 83.5h545l-244 -1262h-135l109 567h-158l-109 -567h-135l109 567h-113q-118 0 -184.5 83t-44.5 202zM248 850q-11 -65 13 -108.5t83 -43.5h137l84 432h-100q-62 0 -121.5 -46t-71.5 -107zM616 698h158l84 432h-158z" />
<glyph unicode="&#xb7;" horiz-adv-x="518" d="M102 537l35 174h168l-35 -174h-168z" />
<glyph unicode="&#xb8;" horiz-adv-x="759" d="M223 -346l51 258h123l-49 -258h-125z" />
<glyph unicode="&#xb9;" horiz-adv-x="667" d="M168 670l18 100h125l70 395h-123l16 99h228l-86 -494h114l-18 -100h-344z" />
<glyph unicode="&#xba;" horiz-adv-x="811" d="M182 819l54 307q10 60 61 103t111 43h147q62 0 100.5 -44t28.5 -106l-53 -307q-10 -60 -61.5 -103.5t-110.5 -43.5h-148q-63 0 -101 44t-28 107zM289 827q-12 -63 24 -63h150q23 0 41 16t22 43l52 291q12 62 -25 62h-150q-23 0 -41 -15.5t-22 -42.5z" />
<glyph unicode="&#xbb;" horiz-adv-x="1077" d="M-6 137l405 346q-9 11 -119.5 152t-160.5 207h180l281 -359l-408 -346h-178zM385 137l410 346q-41 53 -139.5 177t-143.5 182h182l279 -359l-406 -346h-182z" />
<glyph unicode="&#xbc;" horiz-adv-x="1427" d="M166 670l16 100h125l72 395h-123l16 99h228l-88 -494h114l-16 -100h-344zM184 0l877 1262h125l-879 -1262h-123zM727 166l188 424h105l-137 -322h127l41 224h98l-41 -224h90l-18 -102h-90l-29 -168h-98l28 168h-264z" />
<glyph unicode="&#xbd;" horiz-adv-x="1372" d="M166 670l16 100h125l70 395h-123l18 99h228l-88 -494h114l-16 -100h-344zM184 0l877 1262h125l-879 -1262h-123zM700 2l29 164q7 38 34.5 73t61.5 50q34 18 106.5 52.5t106.5 51.5q26 10 35 43l2 19q4 22 -6 37.5t-29 15.5h-98q-14 0 -32.5 -16t-28.5 -37h-103 q21 63 70 107t102 44h99q62 0 99.5 -45t27.5 -106l-2 -19q-8 -42 -35 -77t-66 -54l-211 -102q-28 -14 -31 -41l-10 -62h293l-18 -98h-396z" />
<glyph unicode="&#xbe;" horiz-adv-x="1415" d="M193 823h108q8 -51 33 -51h100q19 0 36.5 14t21.5 35l8 49q7 50 -29 50h-100l18 98h90q19 0 35.5 14t20.5 35l10 55q3 21 -5 34t-26 13h-102q-35 0 -60 -51h-104q20 65 69.5 108.5t104.5 43.5h100q60 0 98 -44t29 -104l-10 -55q-8 -49 -57 -98q31 -45 22 -99l-8 -49 q-11 -62 -59.5 -105.5t-108.5 -43.5h-102q-57 0 -92 41.5t-41 109.5zM207 0l876 1262h125l-878 -1262h-123zM715 166l188 424h105l-138 -322h127l39 224h99l-39 -224h90l-19 -102h-90l-28 -168h-99l29 168h-264z" />
<glyph unicode="&#xbf;" horiz-adv-x="964" d="M37 250l10 59q16 81 59.5 140t131.5 102q31 16 100 48.5t100 47.5q39 19 67.5 54t35.5 75l18 96h131l-18 -96q-10 -53 -31 -93.5t-55 -71.5t-70 -53t-90 -48l-145 -70q-51 -26 -72 -52t-31 -81l-12 -65q-9 -52 22 -89.5t86 -37.5h218q62 0 127 48t75 107l13 60h131 l-13 -60q-22 -117 -121.5 -199.5t-218.5 -82.5h-217q-120 0 -186 73t-45 189zM588 1102l35 172h165l-34 -172h-166z" />
<glyph unicode="&#xc0;" horiz-adv-x="1062" d="M-72 0l619 1262h211l135 -1262h-141l-25 244h-541l-118 -244h-140zM250 373h467l-76 739h-31zM438 1673h168l164 -260h-123z" />
<glyph unicode="&#xc1;" horiz-adv-x="1062" d="M-72 0l619 1262h211l135 -1262h-141l-25 244h-541l-118 -244h-140zM250 373h467l-76 739h-31zM481 1413l267 260h167l-313 -260h-121z" />
<glyph unicode="&#xc2;" horiz-adv-x="1062" d="M-72 0l619 1262h211l135 -1262h-141l-25 244h-541l-118 -244h-140zM250 373h467l-76 739h-31zM373 1411l270 262h141l170 -262h-135l-114 176l-181 -176h-151z" />
<glyph unicode="&#xc3;" horiz-adv-x="1062" d="M-72 0l619 1262h211l135 -1262h-141l-25 244h-541l-118 -244h-140zM250 373h467l-76 739h-31zM279 1503q36 49 88 83t112 34q39 0 147.5 -44t137.5 -42q24 1 45.5 13.5t33 25t29.5 35.5l84 -64q-85 -121 -196 -121q-48 0 -146 42t-139 42q-29 0 -60.5 -22.5t-54.5 -50.5z " />
<glyph unicode="&#xc4;" horiz-adv-x="1062" d="M-72 0l619 1262h211l135 -1262h-141l-25 244h-541l-118 -244h-140zM250 373h467l-76 739h-31zM406 1430l28 151h152l-31 -151h-149zM756 1430l30 151h152l-31 -151h-151z" />
<glyph unicode="&#xc5;" horiz-adv-x="1062" d="M-72 0l619 1262h211l135 -1262h-141l-25 244h-541l-118 -244h-140zM250 373h467l-76 739h-31zM487 1567q0 82 55.5 138t137.5 56t139.5 -56.5t57.5 -137.5q0 -82 -57.5 -138.5t-139.5 -56.5t-137.5 56.5t-55.5 138.5zM565 1567q0 -47 35 -82t82 -35t82 35t35 82t-35 81.5 t-82 34.5t-82 -34.5t-35 -81.5z" />
<glyph unicode="&#xc6;" horiz-adv-x="1404" d="M-72 0l619 1262h831l-24 -132h-477l-84 -436h477l-27 -131h-477l-84 -432h477l-24 -131h-613l47 244h-385q-104 -214 -118 -244h-138zM248 373h346l143 739h-129q-328 -674 -360 -739z" />
<glyph unicode="&#xc7;" horiz-adv-x="1058" d="M55 268l142 721q23 118 121.5 201.5t216.5 83.5h247q113 0 178.5 -77t53.5 -189h-135q3 58 -24 96.5t-81 38.5h-248q-62 0 -122 -46.5t-72 -107.5l-142 -719q-12 -64 14.5 -107.5t86.5 -43.5h252q58 0 114.5 40t75.5 95h133l2 -2q-32 -113 -128 -188.5t-208 -75.5h-247 q-119 0 -186 81t-44 199zM313 -346l52 258h122l-49 -258h-125z" />
<glyph unicode="&#xc8;" horiz-adv-x="1009" d="M20 0l244 1262h719l-25 -132h-583l-84 -436h553l-27 -131h-553l-84 -432h584l-25 -131h-719zM438 1673h168l164 -260h-123z" />
<glyph unicode="&#xc9;" horiz-adv-x="1009" d="M20 0l244 1262h719l-25 -132h-583l-84 -436h553l-27 -131h-553l-84 -432h584l-25 -131h-719zM481 1413l267 260h167l-313 -260h-121z" />
<glyph unicode="&#xca;" horiz-adv-x="1009" d="M20 0l244 1262h719l-25 -132h-583l-84 -436h553l-27 -131h-553l-84 -432h584l-25 -131h-719zM373 1411l270 262h141l170 -262h-135l-114 176l-181 -176h-151z" />
<glyph unicode="&#xcb;" horiz-adv-x="1009" d="M20 0l244 1262h719l-25 -132h-583l-84 -436h553l-27 -131h-553l-84 -432h584l-25 -131h-719zM389 1430l29 151h151l-30 -151h-150zM739 1430l31 151h152l-31 -151h-152z" />
<glyph unicode="&#xcc;" horiz-adv-x="444" d="M39 0l244 1262h135l-244 -1262h-135zM115 1673h168l163 -260h-122z" />
<glyph unicode="&#xcd;" horiz-adv-x="444" d="M39 0l244 1262h135l-244 -1262h-135zM268 1413l267 260h167l-313 -260h-121z" />
<glyph unicode="&#xce;" horiz-adv-x="444" d="M39 0l244 1262h135l-244 -1262h-135zM70 1411l270 262h141l170 -262h-135l-115 176l-180 -176h-151z" />
<glyph unicode="&#xcf;" horiz-adv-x="444" d="M39 0l244 1262h135l-244 -1262h-135zM117 1415l28 152h152l-31 -152h-149zM467 1415l31 152h151l-31 -152h-151z" />
<glyph unicode="&#xd0;" horiz-adv-x="1097" d="M6 565l27 129h121l110 568h541q81 0 138.5 -42.5t79 -105t7.5 -129.5l-137 -706q-24 -121 -109.5 -200t-208.5 -79h-555l109 565h-123zM180 131h414q54 0 102.5 40.5t61.5 107.5l137 702q11 60 -24 104.5t-95 44.5h-401l-86 -436h307l-27 -129h-305z" />
<glyph unicode="&#xd1;" horiz-adv-x="1105" d="M18 0l244 1262h150l340 -1020l196 1020h135l-243 -1262h-154l-338 1004l-194 -1004h-136zM338 1503q36 48 88.5 82.5t112.5 34.5q39 0 147 -44t137 -42q34 1 58.5 20.5t50.5 53.5l84 -64q-85 -121 -197 -121q-48 0 -145.5 42t-138.5 42q-29 0 -60.5 -22.5t-54.5 -50.5z " />
<glyph unicode="&#xd2;" horiz-adv-x="1114" d="M57 268l142 727q23 117 123 198t219 81h266q119 0 185.5 -81t43.5 -198l-141 -727q-23 -119 -120.5 -199.5t-219.5 -80.5h-274q-118 0 -182.5 80.5t-41.5 199.5zM193 266q-12 -64 14 -105.5t86 -41.5h266q64 0 126.5 44.5t74.5 104.5l141 727q12 62 -15 105t-87 43h-264 q-63 0 -126 -45t-75 -103zM438 1673h168l164 -260h-123z" />
<glyph unicode="&#xd3;" horiz-adv-x="1114" d="M57 268l142 727q23 117 123 198t219 81h266q119 0 185.5 -81t43.5 -198l-141 -727q-23 -119 -120.5 -199.5t-219.5 -80.5h-274q-118 0 -182.5 80.5t-41.5 199.5zM193 266q-12 -64 14 -105.5t86 -41.5h266q64 0 126.5 44.5t74.5 104.5l141 727q12 62 -15 105t-87 43h-264 q-63 0 -126 -45t-75 -103zM481 1413l267 260h167l-313 -260h-121z" />
<glyph unicode="&#xd4;" horiz-adv-x="1114" d="M57 268l142 727q23 117 123 198t219 81h266q119 0 185.5 -81t43.5 -198l-141 -727q-23 -119 -120.5 -199.5t-219.5 -80.5h-274q-118 0 -182.5 80.5t-41.5 199.5zM193 266q-12 -64 14 -105.5t86 -41.5h266q64 0 126.5 44.5t74.5 104.5l141 727q12 62 -15 105t-87 43h-264 q-63 0 -126 -45t-75 -103zM393 1411l271 262h141l170 -262h-135l-115 176l-180 -176h-152z" />
<glyph unicode="&#xd5;" horiz-adv-x="1142" d="M57 268l142 727q23 117 123 198t219 81h266q119 0 185.5 -81t43.5 -198l-141 -727q-23 -119 -120.5 -199.5t-219.5 -80.5h-274q-118 0 -182.5 80.5t-41.5 199.5zM193 266q-12 -64 14 -105.5t86 -41.5h266q64 0 126.5 44.5t74.5 104.5l141 727q12 62 -15 105t-87 43h-264 q-63 0 -126 -45t-75 -103zM307 1503q36 48 88.5 82.5t112.5 34.5q39 0 147.5 -44t137.5 -42q24 1 45.5 13.5t33 25t29.5 35.5l84 -64q-85 -121 -197 -121q-48 0 -145.5 42t-138.5 42q-29 0 -60.5 -22.5t-54.5 -50.5z" />
<glyph unicode="&#xd6;" horiz-adv-x="1114" d="M57 268l142 727q23 117 123 198t219 81h266q119 0 185.5 -81t43.5 -198l-141 -727q-23 -119 -120.5 -199.5t-219.5 -80.5h-274q-118 0 -182.5 80.5t-41.5 199.5zM193 266q-12 -64 14 -105.5t86 -41.5h266q64 0 126.5 44.5t74.5 104.5l141 727q12 62 -15 105t-87 43h-264 q-63 0 -126 -45t-75 -103zM442 1430l29 151h152l-31 -151h-150zM793 1430l30 151h152l-31 -151h-151z" />
<glyph unicode="&#xd7;" horiz-adv-x="1228" d="M143 201l367 307l-242 301l99 86l243 -303l373 313l78 -98l-373 -313l244 -304l-98 -86l-246 306l-369 -308z" />
<glyph unicode="&#xd8;" horiz-adv-x="1114" d="M25 0l61 86q-50 75 -29 182l142 727q23 117 123 198t219 81h266q55 0 106 -23l13 17h137l-62 -88q55 -82 35 -185l-141 -727q-23 -118 -122 -199t-218 -81h-274q-65 0 -111 24l-8 -12h-137zM190 231l639 902q-5 2 -9.5 5t-8.5 4t-12 1h-264q-63 0 -126 -45t-75 -103 l-141 -729q-4 -26 -3 -35zM254 131q27 -12 45 -12h266q63 0 123 44.5t72 104.5l141 727q2 8 2 47z" />
<glyph unicode="&#xd9;" horiz-adv-x="1093" d="M57 268q-23 -119 41.5 -199.5t182.5 -80.5h260q119 0 218 81t122 199l192 994h-135l-193 -994q-12 -60 -73.5 -104.5t-124.5 -44.5h-252q-60 0 -88.5 42t-16.5 105l195 996h-135zM438 1673h168l164 -260h-123z" />
<glyph unicode="&#xda;" horiz-adv-x="1093" d="M57 268q-23 -119 41.5 -199.5t182.5 -80.5h260q119 0 218 81t122 199l192 994h-135l-193 -994q-12 -60 -73.5 -104.5t-124.5 -44.5h-252q-60 0 -88.5 42t-16.5 105l195 996h-135zM481 1413l267 260h167l-313 -260h-121z" />
<glyph unicode="&#xdb;" horiz-adv-x="1093" d="M57 268q-23 -119 41.5 -199.5t182.5 -80.5h260q119 0 218 81t122 199l192 994h-135l-193 -994q-12 -60 -73.5 -104.5t-124.5 -44.5h-252q-60 0 -88.5 42t-16.5 105l195 996h-135zM373 1411l270 262h141l170 -262h-135l-114 176l-181 -176h-151z" />
<glyph unicode="&#xdc;" horiz-adv-x="1093" d="M57 268q-23 -119 41.5 -199.5t182.5 -80.5h260q119 0 218 81t122 199l192 994h-135l-193 -994q-12 -60 -73.5 -104.5t-124.5 -44.5h-252q-60 0 -88.5 42t-16.5 105l195 996h-135zM432 1430l29 151h151l-30 -151h-150zM782 1430l31 151h152l-31 -151h-152z" />
<glyph unicode="&#xdd;" horiz-adv-x="909" d="M147 1262h152l172 -545q63 90 191.5 272.5t191.5 272.5h152l-494 -682l-113 -580h-135l113 580q-33 101 -112 331.5t-118 350.5zM397 1413l267 260h167l-313 -260h-121z" />
<glyph unicode="&#xde;" horiz-adv-x="1071" d="M18 0l244 1264h135l-47 -244h406q118 0 184.5 -83t44.5 -200l-29 -141q-23 -119 -121.5 -201t-216.5 -82h-405l-59 -313h-136zM240 444h389q63 0 122.5 46.5t69.5 107.5l29 139q11 64 -17 108t-88 44h-419z" />
<glyph unicode="&#xdf;" horiz-adv-x="991" d="M-6 0l192 999q24 120 107.5 196.5t198.5 76.5h172q123 0 191 -83.5t48 -184.5l-29 -150q-19 -94 -131 -195q95 -112 76 -219l-33 -168q-25 -123 -111.5 -203.5t-203.5 -80.5h-172l23 125h139q61 0 121.5 50.5t72.5 112.5l33 164q11 63 -16.5 109.5t-85.5 46.5h-160 l25 125h131q59 0 101.5 41.5t61.5 103.5l25 131q12 59 -21 103.5t-94 44.5h-143q-68 0 -125 -39.5t-70 -106.5l-194 -999h-129z" />
<glyph unicode="&#xe0;" horiz-adv-x="952" d="M43 213l16 78q19 95 92.5 159t167.5 64h369l33 172q8 40 -10.5 66t-57.5 26h-213q-37 0 -74.5 -31.5t-48.5 -66.5h-135q24 93 98.5 159t163.5 66h215q98 0 155 -64.5t38 -160.5l-133 -680h-127l6 53q-38 -40 -73 -52.5t-83 -12.5h-204q-107 0 -160 65.5t-35 159.5z M174 213q-8 -40 11 -69t57 -29h200q66 0 125 38t70 101l27 137h-349q-41 0 -79.5 -28.5t-45.5 -67.5zM381 1354h168l164 -260h-123z" />
<glyph unicode="&#xe1;" horiz-adv-x="952" d="M43 213l16 78q19 95 92.5 159t167.5 64h369l33 172q8 40 -10.5 66t-57.5 26h-213q-37 0 -74.5 -31.5t-48.5 -66.5h-135q24 93 98.5 159t163.5 66h215q98 0 155 -64.5t38 -160.5l-133 -680h-127l6 53q-38 -40 -73 -52.5t-83 -12.5h-204q-107 0 -160 65.5t-35 159.5z M174 213q-8 -40 11 -69t57 -29h200q66 0 125 38t70 101l27 137h-349q-41 0 -79.5 -28.5t-45.5 -67.5zM451 1094l266 260h168l-314 -260h-120z" />
<glyph unicode="&#xe2;" horiz-adv-x="952" d="M43 213l16 78q19 95 92.5 159t167.5 64h369l33 172q8 40 -10.5 66t-57.5 26h-213q-37 0 -74.5 -31.5t-48.5 -66.5h-135q24 93 98.5 159t163.5 66h215q98 0 155 -64.5t38 -160.5l-133 -680h-127l6 53q-38 -40 -73 -52.5t-83 -12.5h-204q-107 0 -160 65.5t-35 159.5z M174 213q-8 -40 11 -69t57 -29h200q66 0 125 38t70 101l27 137h-349q-41 0 -79.5 -28.5t-45.5 -67.5zM322 1092l270 262h141l170 -262h-135l-115 176l-180 -176h-151z" />
<glyph unicode="&#xe3;" horiz-adv-x="952" d="M43 213l16 78q19 95 92.5 159t167.5 64h369l33 172q8 40 -10.5 66t-57.5 26h-213q-37 0 -74.5 -31.5t-48.5 -66.5h-135q24 93 98.5 159t163.5 66h215q98 0 155 -64.5t38 -160.5l-133 -680h-127l6 53q-38 -40 -73 -52.5t-83 -12.5h-204q-107 0 -160 65.5t-35 159.5z M174 213q-8 -40 11 -69t57 -29h200q66 0 125 38t70 101l27 137h-349q-41 0 -79.5 -28.5t-45.5 -67.5zM272 1171q87 111 187 111q45 0 136 -41t120 -41q24 0 45.5 13t33 25t29.5 36l84 -62q-85 -120 -196 -120q-49 0 -133 42t-123 42q-20 0 -43 -15.5t-32.5 -25.5t-27.5 -31z " />
<glyph unicode="&#xe4;" horiz-adv-x="952" d="M43 213l16 78q19 95 92.5 159t167.5 64h369l33 172q8 40 -10.5 66t-57.5 26h-213q-37 0 -74.5 -31.5t-48.5 -66.5h-135q24 93 98.5 159t163.5 66h215q98 0 155 -64.5t38 -160.5l-133 -680h-127l6 53q-38 -40 -73 -52.5t-83 -12.5h-204q-107 0 -160 65.5t-35 159.5z M174 213q-8 -40 11 -69t57 -29h200q66 0 125 38t70 101l27 137h-349q-41 0 -79.5 -28.5t-45.5 -67.5zM342 1110l29 152h151l-30 -152h-150zM692 1110l31 152h151l-30 -152h-152z" />
<glyph unicode="&#xe5;" horiz-adv-x="952" d="M43 213l16 78q19 95 92.5 159t167.5 64h369l33 172q8 40 -10.5 66t-57.5 26h-213q-37 0 -74.5 -31.5t-48.5 -66.5h-135q24 93 98.5 159t163.5 66h215q98 0 155 -64.5t38 -160.5l-133 -680h-127l6 53q-38 -40 -73 -52.5t-83 -12.5h-204q-107 0 -160 65.5t-35 159.5z M174 213q-8 -40 11 -69t57 -29h200q66 0 125 38t70 101l27 137h-349q-41 0 -79.5 -28.5t-45.5 -67.5zM399 1247q0 82 55.5 138.5t137.5 56.5t139 -56.5t57 -138.5t-57 -138t-139 -56t-137.5 56t-55.5 138zM477 1247q0 -47 35 -82t82 -35t82 35t35 82t-35 82t-82 35t-82 -35 t-35 -82z" />
<glyph unicode="&#xe6;" horiz-adv-x="1538" d="M45 215l12 70q19 94 98.5 161.5t174.5 67.5h358l33 172q8 41 -8.5 66.5t-55.5 25.5h-221q-37 0 -73.5 -31t-47.5 -67h-133q23 92 103 158.5t170 66.5h215q106 0 157 -84q100 84 220 84h139q117 0 184.5 -82.5t44.5 -199.5l-47 -246h-575l-25 -123q-12 -63 22 -101t97 -38 h141q116 0 160 94h137q-43 -96 -125 -158.5t-178 -62.5h-156q-64 0 -115 24.5t-81 67.5q-73 -92 -238 -92h-205q-104 0 -152.5 69.5t-29.5 157.5zM174 213q-10 -41 5.5 -69.5t53.5 -28.5h201q67 0 129.5 37.5t73.5 99.5l27 139h-345q-41 0 -79 -28.5t-47 -67.5zM817 502h445 l24 129q12 64 -17.5 105.5t-90.5 41.5h-134q-66 0 -128 -43t-74 -104z" />
<glyph unicode="&#xe7;" horiz-adv-x="935" d="M63 268l68 355q23 118 117.5 200t210.5 82h135q118 0 191.5 -75t52.5 -183h-131q10 60 -23.5 95.5t-93.5 35.5h-135q-64 0 -121.5 -44.5t-69.5 -106.5l-69 -357q-12 -65 18 -110t92 -45h135q70 0 123 32.5t64 98.5h131q-8 -46 -30 -89.5t-58.5 -82.5t-93.5 -62.5 t-127 -23.5h-152q-118 0 -187.5 82t-46.5 198zM264 -346l51 258h123l-49 -258h-125z" />
<glyph unicode="&#xe8;" horiz-adv-x="948" d="M59 258l72 371q23 117 117 196.5t211 79.5h139q119 0 191 -80.5t49 -195.5l-50 -252h-575l-25 -121q-12 -63 24 -102t99 -39h142q111 0 155 94h137q-44 -99 -118 -160t-170 -61h-156q-120 0 -192.5 77.5t-49.5 192.5zM238 502h444l25 129q12 63 -20 105t-93 42h-137 q-65 0 -124 -42t-71 -103zM373 1354h168l164 -260h-123z" />
<glyph unicode="&#xe9;" horiz-adv-x="948" d="M59 258l72 371q23 117 117 196.5t211 79.5h139q119 0 191 -80.5t49 -195.5l-50 -252h-575l-25 -121q-12 -63 24 -102t99 -39h142q111 0 155 94h137q-44 -99 -118 -160t-170 -61h-156q-120 0 -192.5 77.5t-49.5 192.5zM238 502h444l25 129q12 63 -20 105t-93 42h-137 q-65 0 -124 -42t-71 -103zM438 1094l267 260h167l-313 -260h-121z" />
<glyph unicode="&#xea;" horiz-adv-x="948" d="M59 258l72 371q23 117 117 196.5t211 79.5h139q119 0 191 -80.5t49 -195.5l-50 -252h-575l-25 -121q-12 -63 24 -102t99 -39h142q111 0 155 94h137q-44 -99 -118 -160t-170 -61h-156q-120 0 -192.5 77.5t-49.5 192.5zM238 502h444l25 129q12 63 -20 105t-93 42h-137 q-65 0 -124 -42t-71 -103zM281 1092l270 262h141l170 -262h-135l-115 176l-180 -176h-151z" />
<glyph unicode="&#xeb;" horiz-adv-x="948" d="M59 258l72 371q23 117 117 196.5t211 79.5h139q119 0 191 -80.5t49 -195.5l-50 -252h-575l-25 -121q-12 -63 24 -102t99 -39h142q111 0 155 94h137q-44 -99 -118 -160t-170 -61h-156q-120 0 -192.5 77.5t-49.5 192.5zM238 502h444l25 129q12 63 -20 105t-93 42h-137 q-65 0 -124 -42t-71 -103zM313 1110l29 152h152l-31 -152h-150zM664 1110l30 152h152l-31 -152h-151z" />
<glyph unicode="&#xec;" horiz-adv-x="378" d="M27 0l174 889h131l-174 -889h-131zM45 1354h168l164 -260h-123z" />
<glyph unicode="&#xed;" horiz-adv-x="378" d="M27 0l174 889h131l-174 -889h-131zM213 1094l266 260h168l-313 -260h-121z" />
<glyph unicode="&#xee;" horiz-adv-x="378" d="M16 1092l271 262h141l170 -262h-135l-115 176l-180 -176h-152zM27 0l174 889h131l-174 -889h-131z" />
<glyph unicode="&#xef;" horiz-adv-x="378" d="M27 0l174 889h131l-174 -889h-131zM45 1110l29 152h151l-30 -152h-150zM395 1110l31 152h152l-31 -152h-152z" />
<glyph unicode="&#xf0;" horiz-adv-x="937" d="M27 266l71 369q23 116 121.5 193t216.5 77h125q106 0 150 -67l28 143q12 60 -20.5 104.5t-91.5 49.5l-43 -41h-152l41 41h-104l24 127h211l92 92h168l-121 -113q73 -31 108.5 -100.5t18.5 -157.5l-137 -711q-23 -117 -122 -200.5t-216 -83.5h-141q-116 0 -182.5 80.5 t-44.5 197.5zM158 268q-12 -63 25 -108t100 -45h135q63 0 116.5 45t65.5 108l72 369q12 63 -25 102t-100 39h-135q-64 0 -117.5 -39.5t-65.5 -101.5z" />
<glyph unicode="&#xf1;" horiz-adv-x="976" d="M27 0l172 889h127l-7 -53q44 38 80.5 53.5t98.5 15.5h131q118 0 186 -80t45 -196l-121 -629h-131l121 631q12 64 -17 105.5t-91 41.5h-152q-65 0 -120.5 -38.5t-67.5 -100.5l-123 -639h-131zM270 1171q87 111 187 111q45 0 136 -41t120 -41q24 0 45.5 13t33 25t29.5 36 l84 -62q-85 -120 -196 -120q-49 0 -133 42t-123 42q-20 0 -43 -15.5t-32.5 -25.5t-27.5 -31z" />
<glyph unicode="&#xf2;" horiz-adv-x="935" d="M59 262l72 371q23 117 118 194.5t212 77.5h137q119 0 190 -78.5t48 -193.5l-70 -365q-23 -118 -118.5 -199t-211.5 -81h-141q-117 0 -188 79.5t-48 194.5zM190 264q-12 -64 20.5 -106.5t94.5 -42.5h135q65 0 123 43.5t70 105.5l72 371q13 64 -20 103.5t-95 39.5h-135 q-64 0 -122 -40.5t-71 -102.5zM377 1354h168l164 -260h-123z" />
<glyph unicode="&#xf3;" horiz-adv-x="935" d="M59 262l72 371q23 117 118 194.5t212 77.5h137q119 0 190 -78.5t48 -193.5l-70 -365q-23 -118 -118.5 -199t-211.5 -81h-141q-117 0 -188 79.5t-48 194.5zM190 264q-12 -64 20.5 -106.5t94.5 -42.5h135q65 0 123 43.5t70 105.5l72 371q13 64 -20 103.5t-95 39.5h-135 q-64 0 -122 -40.5t-71 -102.5zM432 1094l266 260h168l-313 -260h-121z" />
<glyph unicode="&#xf4;" horiz-adv-x="935" d="M59 262l72 371q23 117 118 194.5t212 77.5h137q119 0 190 -78.5t48 -193.5l-70 -365q-23 -118 -118.5 -199t-211.5 -81h-141q-117 0 -188 79.5t-48 194.5zM190 264q-12 -64 20.5 -106.5t94.5 -42.5h135q65 0 123 43.5t70 105.5l72 371q13 64 -20 103.5t-95 39.5h-135 q-64 0 -122 -40.5t-71 -102.5zM285 1092l270 262h141l170 -262h-135l-115 176l-180 -176h-151z" />
<glyph unicode="&#xf5;" horiz-adv-x="935" d="M59 262l72 371q23 117 118 194.5t212 77.5h137q119 0 190 -78.5t48 -193.5l-70 -365q-23 -118 -118.5 -199t-211.5 -81h-141q-117 0 -188 79.5t-48 194.5zM190 264q-12 -64 20.5 -106.5t94.5 -42.5h135q65 0 123 43.5t70 105.5l72 371q13 64 -20 103.5t-95 39.5h-135 q-64 0 -122 -40.5t-71 -102.5zM246 1171q87 111 186 111q45 0 136 -41t120 -41q24 0 46 12.5t33.5 25.5t29.5 36l84 -62q-85 -120 -197 -120q-48 0 -132 42t-124 42q-6 0 -13 -1.5t-12.5 -3.5t-12 -6.5t-11 -7t-11 -9t-10 -9t-10 -10t-8 -9l-8.5 -8.5l-6 -8z" />
<glyph unicode="&#xf6;" horiz-adv-x="935" d="M59 262l72 371q23 117 118 194.5t212 77.5h137q119 0 190 -78.5t48 -193.5l-70 -365q-23 -118 -118.5 -199t-211.5 -81h-141q-117 0 -188 79.5t-48 194.5zM190 264q-12 -64 20.5 -106.5t94.5 -42.5h135q65 0 123 43.5t70 105.5l72 371q13 64 -20 103.5t-95 39.5h-135 q-64 0 -122 -40.5t-71 -102.5zM313 1110l29 152h152l-31 -152h-150zM664 1110l30 152h152l-31 -152h-151z" />
<glyph unicode="&#xf7;" horiz-adv-x="884" />
<glyph unicode="&#xf8;" horiz-adv-x="935" d="M47 -25l64 86q-74 81 -50 205l70 357q23 116 120.5 193t215.5 77h137q49 0 92 -16l19 26h125l-58 -82q75 -85 52 -205l-66 -344q-23 -117 -122 -200.5t-216 -83.5h-141q-50 0 -96 16l-21 -29h-125zM193 268q-8 -39 6 -82l415 576q-4 1 -9.5 2.5t-12.5 1.5h-135 q-65 0 -124.5 -39.5t-70.5 -101.5zM276 119q12 -4 25 -4h135q65 0 126 45.5t73 107.5l70 357q7 35 -11 77z" />
<glyph unicode="&#xf9;" horiz-adv-x="974" d="M78 266l121 623h131l-121 -629q-12 -64 18 -104.5t92 -40.5h156q65 0 119.5 36.5t67.5 98.5l122 639h131l-172 -889h-127l7 55q-44 -37 -79.5 -52t-97.5 -15h-135q-118 0 -187 81t-46 197zM414 1354h168l163 -260h-122z" />
<glyph unicode="&#xfa;" horiz-adv-x="974" d="M78 266l121 623h131l-121 -629q-12 -64 18 -104.5t92 -40.5h156q65 0 119.5 36.5t67.5 98.5l122 639h131l-172 -889h-127l7 55q-44 -37 -79.5 -52t-97.5 -15h-135q-118 0 -187 81t-46 197zM444 1094l267 260h168l-314 -260h-121z" />
<glyph unicode="&#xfb;" horiz-adv-x="974" d="M78 266l121 623h131l-121 -629q-12 -64 18 -104.5t92 -40.5h156q65 0 119.5 36.5t67.5 98.5l122 639h131l-172 -889h-127l7 55q-44 -37 -79.5 -52t-97.5 -15h-135q-118 0 -187 81t-46 197zM299 1092l270 262h142l170 -262h-136l-114 176l-180 -176h-152z" />
<glyph unicode="&#xfc;" horiz-adv-x="974" d="M78 266l121 623h131l-121 -629q-12 -64 18 -104.5t92 -40.5h156q65 0 119.5 36.5t67.5 98.5l122 639h131l-172 -889h-127l7 55q-44 -37 -79.5 -52t-97.5 -15h-135q-118 0 -187 81t-46 197zM326 1110l28 152h152l-31 -152h-149zM676 1110l31 152h151l-31 -152h-151z" />
<glyph unicode="&#xfd;" horiz-adv-x="845" d="M68 -356l184 342l-152 903h140q112 -715 112 -723l396 723h143l-684 -1245h-139zM295 1094l266 260h168l-313 -260h-121z" />
<glyph unicode="&#xfe;" horiz-adv-x="958" d="M-33 -356l312 1618h131l-86 -443q56 47 98.5 66.5t89.5 19.5h113q118 0 186 -82t45 -198l-70 -357q-23 -117 -121.5 -198.5t-215.5 -81.5h-130q-48 0 -80.5 17.5t-62.5 51.5l-80 -413h-129zM215 258q-12 -64 18.5 -103.5t92.5 -39.5h137q64 0 121 40.5t69 102.5l74 379 q12 65 -14.5 103t-87.5 38h-138q-56 0 -120 -35t-74 -88z" />
<glyph unicode="&#xff;" horiz-adv-x="829" d="M98 -356l185 342l-152 903h139q113 -715 113 -723l395 723h144l-684 -1245h-140zM264 1110l29 152h151l-30 -152h-150zM614 1110l31 152h152l-31 -152h-152z" />
<glyph unicode="&#x152;" horiz-adv-x="1583" d="M63 268l142 727q23 117 123 198t219 81h205q85 0 141 -41l6 29h657l-24 -132h-522l-84 -436h522l-27 -131h-522l-84 -432h522l-24 -131h-658l7 31q-73 -43 -162 -43h-213q-118 0 -182.5 80.5t-41.5 199.5zM199 266q-12 -64 14 -105.5t86 -41.5h205q64 0 126.5 44.5 t74.5 104.5l141 727q12 62 -15.5 105t-87.5 43h-202q-63 0 -126 -45t-75 -103z" />
<glyph unicode="&#x153;" horiz-adv-x="1525" d="M59 266l72 369q23 116 121.5 193t216.5 77h137q129 0 199 -100q47 47 108.5 73.5t126.5 26.5h140q117 0 184.5 -82.5t44.5 -199.5l-47 -246h-576l-24 -123q-12 -63 22 -101t97 -38h141q116 0 160 94h137q-43 -96 -125 -158.5t-178 -62.5h-156q-138 0 -201 98 q-106 -98 -231 -98h-141q-116 0 -183 81t-45 197zM193 268q-12 -64 18 -108.5t92 -44.5h135q64 0 124.5 45.5t72.5 107.5l72 369q12 64 -20.5 102.5t-94.5 38.5h-135q-65 0 -123.5 -39.5t-69.5 -101.5zM811 502h444l25 129q12 63 -19 105t-92 42h-137q-64 0 -123 -41.5 t-71 -99.5z" />
<glyph unicode="&#x178;" horiz-adv-x="909" d="M164 1262h151l172 -545q64 90 191.5 272.5t191.5 272.5h152l-494 -682l-112 -580h-135l112 580q-32 98 -111 329.5t-118 352.5zM328 1425l28 152h152l-31 -152h-149zM678 1425l31 152h151l-31 -152h-151z" />
<glyph unicode="&#x2c6;" horiz-adv-x="815" d="M59 1092l271 262h141l170 -262h-135l-115 176l-180 -176h-152z" />
<glyph unicode="&#x2dc;" horiz-adv-x="1056" d="M272 1171q87 111 187 111q45 0 136 -41t120 -41q24 0 45.5 13t33 25t29.5 36l84 -62q-85 -120 -196 -120q-49 0 -133 42t-123 42q-20 0 -43 -15.5t-32.5 -25.5t-27.5 -31z" />
<glyph unicode="&#x2000;" horiz-adv-x="880" />
<glyph unicode="&#x2001;" horiz-adv-x="1761" />
<glyph unicode="&#x2002;" horiz-adv-x="880" />
<glyph unicode="&#x2003;" horiz-adv-x="1761" />
<glyph unicode="&#x2004;" horiz-adv-x="587" />
<glyph unicode="&#x2005;" horiz-adv-x="440" />
<glyph unicode="&#x2006;" horiz-adv-x="293" />
<glyph unicode="&#x2007;" horiz-adv-x="293" />
<glyph unicode="&#x2008;" horiz-adv-x="220" />
<glyph unicode="&#x2009;" horiz-adv-x="352" />
<glyph unicode="&#x200a;" horiz-adv-x="97" />
<glyph unicode="&#x2010;" horiz-adv-x="708" d="M102 457l27 127h463l-27 -127h-463z" />
<glyph unicode="&#x2011;" horiz-adv-x="708" d="M102 457l27 127h463l-27 -127h-463z" />
<glyph unicode="&#x2012;" horiz-adv-x="708" d="M102 457l27 127h463l-27 -127h-463z" />
<glyph unicode="&#x2013;" horiz-adv-x="921" d="M109 459l26 127h688l-26 -127h-688z" />
<glyph unicode="&#x2014;" horiz-adv-x="1110" d="M-127 455l27 127h1333l-27 -127h-1333z" />
<glyph unicode="&#x2018;" horiz-adv-x="389" d="M143 897l31 166l135 211h94l-135 -201h84l-33 -176h-176z" />
<glyph unicode="&#x2019;" horiz-adv-x="391" d="M141 891l138 207h-82l34 176h177l-35 -170l-137 -213h-95z" />
<glyph unicode="&#x201a;" horiz-adv-x="389" d="M-43 -219l135 209h-80l35 174h174l-33 -168l-135 -215h-96z" />
<glyph unicode="&#x201c;" horiz-adv-x="700" d="M143 897l31 166l135 211h94l-135 -201h84l-33 -176h-176zM455 897l30 166l136 211h94l-135 -201h84l-33 -176h-176z" />
<glyph unicode="&#x201d;" horiz-adv-x="700" d="M141 889l135 209h-79l34 176h175l-33 -168l-137 -217h-95zM453 889l135 209h-80l35 176h174l-33 -168l-137 -217h-94z" />
<glyph unicode="&#x201e;" horiz-adv-x="704" d="M-43 -219l137 209h-82l35 174h176l-33 -168l-137 -215h-96zM270 -219l138 209h-82l34 174h177l-33 -168l-137 -215h-97z" />
<glyph unicode="&#x2022;" horiz-adv-x="876" d="M221 510l25 127q9 52 54.5 88.5t98.5 36.5h123q52 0 82 -36t21 -89l-25 -127q-10 -54 -55.5 -91.5t-98.5 -37.5h-122q-53 0 -83 37.5t-20 91.5z" />
<glyph unicode="&#x2026;" horiz-adv-x="1079" d="M80 -12l35 174h170l-35 -174h-170zM434 -12l35 174h170l-35 -174h-170zM788 -12l35 174h170l-35 -174h-170z" />
<glyph unicode="&#x202f;" horiz-adv-x="352" />
<glyph unicode="&#x2039;" horiz-adv-x="905" d="M98 635l621 633h176l-621 -633q61 -105 186.5 -318t186.5 -317h-176z" />
<glyph unicode="&#x203a;" horiz-adv-x="905" d="M-10 0l620 635q-48 81 -177 299t-197 334h174l374 -633l-622 -635h-172z" />
<glyph unicode="&#x205f;" horiz-adv-x="440" />
<glyph unicode="&#x20ac;" horiz-adv-x="1095" d="M43 326l25 127h57l27 141h-58l25 127h57l57 293q31 111 127 185.5t209 74.5h248q113 0 179.5 -77.5t54.5 -188.5h-136q2 58 -26 96.5t-82 38.5h-248q-63 0 -122.5 -44.5t-69.5 -103.5l-56 -274h494l-25 -127h-493l-27 -141h494l-25 -127h-493l-11 -47q-11 -64 16 -106 t87 -42h415l-24 -131h-397q-119 0 -186 82.5t-44 200.5l8 43h-57z" />
<glyph unicode="&#x2122;" horiz-adv-x="1169" d="M174 1163l21 99h401h102l97 -201q26 30 83.5 97.5t88.5 103.5h102l-104 -533h-99l70 354q-28 -34 -89 -103.5t-89 -102.5l-94 204l-70 -352h-102l83 434h-151l-84 -434h-100l84 434h-150z" />
<glyph unicode="&#xe000;" horiz-adv-x="890" d="M0 0v891h891v-891h-891z" />
<glyph unicode="&#xfb01;" horiz-adv-x="1017" d="M80 762l24 127h162l19 94q23 118 116.5 198.5t210.5 80.5h109l-25 -127h-90q-65 0 -121.5 -45t-68.5 -109l-19 -92h254l-24 -127h-254l-148 -762h-131l148 762h-162zM633 0l172 889h131l-172 -889h-131zM838 1110l28 152h152l-29 -152h-151z" />
<glyph unicode="&#xfb02;" horiz-adv-x="1153" d="M80 762l24 127h162l19 94q23 118 116.5 198.5t210.5 80.5h109l-25 -127h-90q-65 0 -121.5 -45t-68.5 -109l-19 -92h254l-24 -127h-254l-148 -762h-131l148 762h-162zM696 266l195 996h131l-195 -996q-11 -64 22 -107.5t95 -43.5h53l-24 -127h-37q-123 0 -193 79.5 t-47 198.5z" />
</font>
</defs>
</svg>
